/* XPM */
static char *result[] = {
/* columns rows colors chars-per-pixel */
"48 48 180 2 ",
"   c black",
".  c #032D00",
"X  c #053A01",
"o  c #065B00",
"O  c #076B00",
"+  c #077400",
"@  c #317E1D",
"#  c #397C23",
"$  c #5A5D3C",
"%  c #466B2E",
"&  c #486E2F",
"*  c #45772C",
"=  c #496530",
"-  c #58673A",
";  c #4D7332",
":  c #5C7C3C",
">  c #685946",
",  c #735F4E",
"<  c #7B5E53",
"1  c #636542",
"2  c #6A6047",
"3  c #6A6547",
"4  c #74674E",
"5  c #697644",
"6  c #647A43",
"7  c #70744A",
"8  c #7D6455",
"9  c #777454",
"0  c #787C53",
"q  c #7D7959",
"w  c #8A6E5D",
"e  c #827757",
"r  c #8F7860",
"t  c #927763",
"y  c #078400",
"u  c #098500",
"i  c #1D8F0E",
"p  c #0A9501",
"a  c #0D9D02",
"s  c #149908",
"d  c #1D9D0D",
"f  c #1F8E10",
"g  c #1A9010",
"h  c #298A17",
"j  c #33811E",
"k  c #279515",
"l  c #32941E",
"z  c #03A500",
"x  c #0BA601",
"c  c #04AB00",
"v  c #0BA900",
"b  c #10A404",
"n  c #12AB01",
"m  c #1BAE02",
"M  c #05B000",
"N  c #08B000",
"B  c #1FB002",
"V  c #22B004",
"C  c #2BB405",
"Z  c #32B607",
"A  c #33BB06",
"S  c #3CBB09",
"D  c #24A412",
"F  c #28A815",
"G  c #37A41A",
"H  c #37B01F",
"J  c #398123",
"K  c #3A9623",
"L  c #43BD0B",
"P  c #4ABF0D",
"I  c #47872D",
"U  c #5B883B",
"Y  c #599A38",
"T  c #649B2D",
"R  c #738B3B",
"E  c #659C3B",
"W  c #7A963A",
"Q  c #49A82C",
"!  c #4FA031",
"~  c #7BA92E",
"^  c #7EA532",
"/  c #41C108",
"(  c #4DC00D",
")  c #53C30E",
"_  c #5BC70F",
"`  c #56C410",
"'  c #5DC611",
"]  c #5ECA10",
"[  c #64CA12",
"{  c #6DCC13",
"}  c #72CE15",
"|  c #6ED013",
" . c #7AD316",
".. c #7AD317",
"X. c #668F45",
"o. c #6E8349",
"O. c #78884C",
"+. c #669942",
"@. c #759C4D",
"#. c #6AA844",
"$. c #78AF4D",
"%. c #79B04F",
"&. c #8DBA2B",
"*. c #91BA2D",
"=. c #82A435",
"-. c #85A934",
";. c #8BAE33",
":. c #83A239",
">. c #82C91E",
",. c #84D51A",
"<. c #8BD71C",
"1. c #83D818",
"2. c #8DDA1C",
"3. c #93DC1D",
"4. c #98DC1F",
"5. c #9BE21E",
"6. c #A0E21F",
"7. c #8FC426",
"8. c #97CB26",
"9. c #99CF25",
"0. c #95C32B",
"q. c #9AC62D",
"w. c #96D124",
"e. c #9ED325",
"r. c #9EDF21",
"t. c #A1D626",
"y. c #A1DF21",
"u. c #A4D928",
"i. c #A3E122",
"p. c #A9E323",
"a. c #B0E725",
"s. c #838F4E",
"d. c #839546",
"f. c #83825B",
"g. c #868C5A",
"h. c #898C58",
"j. c #8D8C5E",
"k. c #8C9157",
"l. c #89A55A",
"z. c #87B158",
"x. c #8D8862",
"c. c #968365",
"v. c #948965",
"b. c #9B8469",
"n. c #949262",
"m. c #999169",
"M. c #A1846D",
"N. c #A3966E",
"B. c #A68D70",
"V. c #AC9575",
"C. c #A59872",
"Z. c #A99874",
"A. c #AE9D79",
"S. c #B29778",
"D. c #B39C7A",
"F. c #BA9C7E",
"G. c #9EAA69",
"H. c #A4AF6E",
"J. c #A6B26F",
"K. c #B4A17D",
"L. c #BCA17F",
"P. c #BAAE7D",
"I. c #BDA482",
"U. c #BFB380",
"Y. c #C2A583",
"T. c #C8AE87",
"R. c #C6AB89",
"E. c #CDAE8B",
"W. c #D3AE8E",
"Q. c #C2B683",
"!. c #C6B985",
"~. c #CDB38B",
"^. c #D2B68E",
"/. c #D4B88F",
"(. c #D6B591",
"). c #DAB693",
"_. c #D5B990",
"`. c #DABC93",
"'. c #E2BC98",
"]. c #DBC094",
/* pixels */
"_._._._._._._._._._._._._._._._._._._._._._._._._._._._._._._._./._._._._._._._._._._._._._._._.",
"_._._._._._._._._._._._._._._._._._._._._./._._._._._._._._._._._._._._._._._._._._._._._._._._.",
"_._._._._._._._._._._._._._._._._._._._._._._._._._._._._._._._._._._._._._._._._._._._._._._._.",
"_._._._._._._._._._._._._._._._._._._._._._._._._._._._._._._._._._._._._._._._._._._._._._._._.",
"_._._._._._./._._._._._._._._._._._._._._._._._._._.(._._._._._._._._._._._._._._._._._._._._._.",
"_._._._._._._._._._._._._._._._._._._._._._._._._._./._._./._._._._._._._._._._._._._._._._._._.",
"_._._._._._._._././._._._./._._._././._._._._._._._._._._._._._._._._._._._._._./._._._._._._./.",
"_._._._._._._././._./._._._._._././._././._._._._._._._._._._._._._._._._._._._._._._._._._._.(.",
"_._._._._._._./._./._._.~.E.E._.`._./._./././._././._._._._._._._._._./././././././._./._./._._.",
"_._._._._._._._./._.~.r 3 1 1 e F._._./._././._._.~._._.^._.^._._./././._./././.`.`._./._._./._.",
"_._._._._._._././.].M.= k v x s j j./._./././._.`.`.`.`.].]._./././././././.'.(.Y.F.T._././._._.",
"_._._._._._._././.`.c.i c v v v c s o.W.`.`._.T.I.D.A.A.I.I.~._.`._././.`.).G.U ; 1 4 D.`././._.",
"_._._._._._._././._.Y.k c x x v v c b U I.C.s.d.:.-.-.-.^ @.O.j.S.~.`.`.U.! a z c d - 4 ~._./._.",
"_._._._._._._._././.`.H.F z c x n x z x T *.t.y.6.5.6.5.r.r.e.&.W 0 Z.J.D c v n v N @ < ~././._.",
"/._._._._._._./._._./.`.Q.%.H v c z C ,.p.3.[ L V C { m V S [ 2.p.0.Y b z x x v c z : Y.`./._._.",
"_._._._./._././././././._.`._.J.K ) p.4.L n z z z m [ x x z z b L 3.6.) v v z z F l.W.`./._./._.",
"_._././._./././._._././.^.^.`.B.;.a.| n z c v v x B { n v v v v z v [ a.[ a ! G.~.`.`./._././._.",
"/./._././._._.`.).).`.]./.`.A.=.i.` z v v v v v z m [ v z v v v v v z P p.~ q (._././._././._._.",
"/._._./.].~.S.v.O.U +.k.U.~.@.r.3.( v c x v x z m ' 4.( n z v x v z m ) 2.y.R x.`././././._._._.",
"_._._._.F.7 # s c c z z D Y 0.2.V ) } S v z n L <.i.i.i.,.S v z x S } ) m 1.0.5 U.`./._._._._._.",
"^._._.B.- k c y O x v v z C i.( z z V { [ S  .p.i.y.i.y.i.y.{ S [ [ V z z S i.R v._././._././._.",
"/._.L.> k N v .   u N v z ' 3.m v v z z L i.i.i.y.y.y.r.r.y.p.4.S z z v v v 3.;.q /._././._././.",
"/._.r & c v v + o a v v x ,. .v v v v x m r.i.y.y.y.y.y.i.y.i.,.v v v v v z | 0.6 I._.`._./._._.",
"/./.8 # c n v v c v v v v 2.[ z v v v z B 4.y.y.y.y.r.i.y.y.y.<.m x v v v z ) 4.d K U b.E._././.",
"_.~.< J c v v c v v v v v 3.[ z v v v z m r.i.y.y.6.i.r.i.r.i.,.m c z v v z ) 5.c z z f 2 S._._.",
"_./.w * c v v p u x v v v <.} z v v v x m r.y.r.y.y.i.y.r.r.i.,.m x v v v z [ w.I @.#.H 6 8 /._.",
"/.].V.$ b c n .   u N v z } ,.v v v x z V i.i.r.y.6.y.y.r.r.p.3.m z v v x x ..*.9 _.'.!.Q.L.~._.",
"/._./.t = b N o X a v x z / i.V z x z Z { 1.i.p.y.y.i.r.r.i.r. .{ Z z z z B 5.W e /./._._.`._./.",
"_./._./.M.- k v c c c c x G t.[ z B [ } C v S ,.p.i.y.i.i...Z v Z { [ B z _ u.6 A.`./././././._.",
"/._./._.`.Y.c.o.I K K Y G.K.-.4.' } L z z v z n ) w.i.<.L v z v z v L } ) 5.-.0 /._././._././._.",
"/./._./._._.`._.(.W.(.).`.`.n.7.p.V z v v v v c c C ..m z v x v v v z V 6.q.7 K././././._./._._.",
"_././._._./._._./._._././._.~.s.e.2.B z x v v v c B [ v v v v x x z m 1.5.l X.~.`.`././._././._.",
"_._._./.^._._././././././._.'.R.E 2.r.L x z v v c m { v v v x z v S 3.3.V c v D #.P.)._._._._._.",
"_._._._._._._./.^._././._.Q.z.Q x m { p.,.L m v z m [ x z c m S ..p.~ n c b v c z d g.E._._._._.",
"_._._._._._._./._./._.^.$.D c c v v x A >.u.3...] ] 1.) ]  .3.y.7.R O.#.n c v x b M @ t /._._._.",
"_._._._._._._._._./.(.+.c v v v v v c g g.d.=.*.8.9.9.w.8.*.=.R f.A./.'.l.d z v c n ; , T._./._.",
"_._._._._._./././.`.V.i c x v v v c h B.`.~.D.N.n.k.h.h.j.m.C.I./.].`./.`.P.+.l h & > b._././._.",
"_._._._._._._././.`.b.# v M N c a I D.`._._.`.`.`.)._._.`.`.`.`./././././.`.`.L.B.b.S._._._._._.",
"_._._._._._./._./.`.L.3 % @ J * 0 Y.`.^._._././._._./././././././././././././.`.`._.`._./._./._.",
"_._._._._._./._././.`.Y.M.M.M.F.`._._._._._././._._./././././././././././._./././._././._././._.",
"_._._._._._._././././.`.].].].`././._./._._._._._._._._._._._._._._._._._././._._././._./._._._.",
"_._._._._._./._././._./././././././././._._._._._._._._._._._._._._._._._._._._._._._._._._._._.",
"_._./._._._._._././._./././././._./._./._._._._._._._._._._._._._._._._._._._._._._._._._._._._.",
"_._._._._._._._._._._._././././._._._._._._._._._._._._._._._._._._._._._._._._._._._._._._._._.",
"_._._._._._._._._._._._._._._._._._._._._._._._._._._._._._._._./._._._._._._._._._._._._._._._.",
"_._._._._._._._._._._._._._._._._._._._._._._._._._./._._._./._._._._._._._._._./._._._._._._._.",
"_._._._._._._._._._._._._./._._._._._._._._._._._._._._._._._._._._._._._._._._._._._._._._._._.",
"_._._._._._._._._._._._._._._._._._._._._._._._._._._._._._._._._._._._._._._._._._._._._._._._."
};
