/* XPM */
static char *result[] = {
/* columns rows colors chars-per-pixel */
"48 48 179 2 ",
"   c black",
".  c #032B00",
"X  c #043501",
"o  c #065A00",
"O  c #076C00",
"+  c #077300",
"@  c #307E1D",
"#  c #397B23",
"$  c #5B5D3C",
"%  c #466D2D",
"&  c #496C2F",
"*  c #42772A",
"=  c #4A6431",
"-  c #58673A",
";  c #4C7732",
":  c #5D7C3D",
">  c #69793F",
",  c #665945",
"<  c #6C5C49",
"1  c #725F4D",
"2  c #636542",
"3  c #6A6347",
"4  c #75684F",
"5  c #697647",
"6  c #707549",
"7  c #7D6255",
"8  c #7B7656",
"9  c #777C52",
"0  c #7A7C54",
"q  c #86775B",
"w  c #917363",
"e  c #927962",
"r  c #078600",
"t  c #098500",
"y  c #1E8E0F",
"u  c #0A9501",
"i  c #0D9D02",
"p  c #1A910E",
"a  c #159808",
"s  c #1D9D0E",
"d  c #238813",
"f  c #2C8C19",
"g  c #33821F",
"h  c #279416",
"j  c #33941F",
"k  c #03A600",
"l  c #0BA601",
"z  c #04AB00",
"x  c #0BA900",
"c  c #10A405",
"v  c #13AB01",
"b  c #1BAE02",
"n  c #05B000",
"m  c #09B000",
"M  c #1FB003",
"N  c #23B104",
"B  c #2BB405",
"V  c #32B607",
"C  c #34BB07",
"Z  c #3CBA09",
"A  c #27A614",
"S  c #37A41A",
"D  c #35B01E",
"F  c #398023",
"G  c #3A9423",
"H  c #379A23",
"J  c #43BD0B",
"K  c #4ABF0D",
"L  c #45872C",
"P  c #5D883C",
"I  c #579B38",
"U  c #649A2D",
"Y  c #68883B",
"T  c #738A3C",
"R  c #689838",
"E  c #7C9B35",
"W  c #769239",
"Q  c #49A82C",
"!  c #52A033",
"~  c #7BA92D",
"^  c #7EA432",
"/  c #4DC00D",
"(  c #53C30E",
")  c #5BC90F",
"_  c #56C410",
"`  c #5BC611",
"'  c #5ECA10",
"]  c #60C711",
"[  c #65CA12",
"{  c #6CCC13",
"}  c #72CE15",
"|  c #6DD012",
" . c #76D316",
".. c #7AD316",
"X. c #7ED218",
"o. c #658F43",
"O. c #6D8348",
"+. c #79884E",
"@. c #659C41",
"#. c #699A44",
"$. c #789846",
"%. c #7A8053",
"&. c #69A844",
"*. c #7BAF50",
"=. c #8CB92B",
"-. c #90B72F",
";. c #92BB2D",
":. c #83A633",
">. c #85A934",
",. c #8BAE34",
"<. c #83A139",
"1. c #84D51A",
"2. c #88D71B",
"3. c #8DDA1C",
"4. c #94DC1D",
"5. c #98DC1F",
"6. c #97E31C",
"7. c #9CE21E",
"8. c #A0E21F",
"9. c #88C224",
"0. c #99CD26",
"q. c #95C42B",
"w. c #9BC62D",
"e. c #97D124",
"r. c #9ED325",
"t. c #9EDE21",
"y. c #A1D527",
"u. c #A1DE22",
"i. c #A3E122",
"p. c #A8E323",
"a. c #B0E625",
"s. c #838F4E",
"d. c #839646",
"f. c #86944B",
"g. c #858D56",
"h. c #888A5A",
"j. c #8B9157",
"k. c #88A55A",
"l. c #8AB15B",
"z. c #958365",
"x. c #998667",
"c. c #938A65",
"v. c #9D836A",
"b. c #989168",
"n. c #A1836D",
"m. c #A28A6E",
"M. c #A1956D",
"N. c #A79673",
"B. c #AD9676",
"V. c #A69972",
"C. c #AD9976",
"Z. c #AF9D7A",
"A. c #B39D7A",
"S. c #9BAE66",
"D. c #A2A96C",
"F. c #A3B36D",
"G. c #B3A17B",
"H. c #BBA07E",
"J. c #BAAE7D",
"K. c #AAB170",
"L. c #B7A180",
"P. c #BDA382",
"I. c #C2A583",
"U. c #C3AC85",
"Y. c #C5A888",
"T. c #CBAE8A",
"R. c #D1AE8E",
"E. c #C2B582",
"W. c #C4B984",
"Q. c #CDB38B",
"!. c #D2B68E",
"~. c #D4B88F",
"^. c #D3AF90",
"/. c #D5B691",
"(. c #D9B593",
"). c #D5B990",
"_. c #DABC93",
"`. c #E2BC99",
"'. c #DBC094",
/* pixels */
").).).).).).).).).).).).).).).).).).).).).).).).).).).).).).).).).).).).).).).).).).).).).).).).",
").).).).).).).).).).).).).).).).).).).).).).).).).).).).).).).).).).).).).).).).).).).).).).).).",
").).).).).).).).).).).).).).).).).).).).).).).).).).).).).).).).).).~.~.).).).).).).).).).).).).",
").).).).).).).).).).).).).).).).).).).).).).).).).).).).).).).!.).).~._.).~.).).).).).).).).).).",
").).).).).).~.).).).).).).).).).).!.).).).).).).).).).).).).).).~.~.~.~.~.~._.~.).).).).).).).).",
").).).).).).).).).).).).).).).).).).).).).).).).).).).).).).!.).!.!.~.~.~.~.~.~.).).).).).).).).",
").).).).).).).).).).).).).).).).).).).).).).).).).).).).!.).).!.!.!.!.!.~._.~.~.).~.).).).).).~.",
").).).~.).~.~.~.~.).~.).).).).).).).).).).).).).).).).!.).).!.).'.'.'.'._.~.~.~.~.).).).).).).).",
").~.~.).).~.~.!.!.~.).~.).).~.!.!.).).).!.)./.).~.).).)./.!.)._.P.n.e n.U.).~.~.).~.).).).).).).",
").~.).~.)._._._._.!.!.).!.).~.).).!.).).).!.).).~.!.).).!._.I.%.* @ F & 3 I._.~.).~.).).).).).).",
").).~.).).C.v.m.I._._.!.!.!.~./.).'._._.)././._.'._.).)._.C.L i z m m m # n._.~.~.).~.).).).).).",
").~.).).x., % f f @.J._.!.)._./.P.V.b.j.g.g.j.b.M.G.Q._.M.f z x x l x z y B._.~.~.~.).).).).).).",
").~.).T.< ; x z x k h l._.~.C.g.$.:.=.0.e.e.e.0.;.:.f.+.p x x x x x x k @.(.~.~.).).).).).).).).",
").~.).~.w @ n c x x z l &.0 W ;.y.4. .) ( 1.' '  .6.i.9.C k l x z z A *.!.).~.).~.).).).).).).).",
").).~.).R.h.s k z l v z v X.y...Z v x k l [ v k x b J 1.p.{ v c Q l.W._.).~.).~.~.).).).).).).).",
").~.).~.)._.J.&.A x k N 4.4.Z l k k x x x { N x x k k x J u.3.R Y.`.).~.~.~.).~.~.~.).~.~.).).).",
").).!.).!.!._.`.!.o.j 4.1.b k x x x v x x [ b z l x x x k N 3.0.s.Q.!.!.~.~.).).!.).).!.~.~.~.).",
").).~.).).)./.).G.6 0.i.M k x x x x l k b ..B k x x x x x k N p.q.c._._.(.~.R./.)._.).).~.).~.~.",
").!.).).!.!.).).9 :.6.( } J x k x k x J 3.i.4./ v k x k x J } ` 6.>.A.S.I H G L O.z.I.'.~.~.~.~.",
").~.~.~.).!.'.V.> y._ k b [ } B x V X.p.i.u.i.p.2.Z x B { [ M k { y.S k z z z z x p - v.!._.~.~.",
").~._.)./.).).8 E 7.N z l k B { ..t.i.u.u.i.u.u.p.p.1.{ V k k l N u.J k v x i X O z c & e ).~.~.",
").!.H.W.W._.).8 ;...l x x l k b 4.u.t.t.i.t.u.i.t.u.8.b k x x x v 1.} k x x t   . l v c $ B.'.~.",
"~.~.7 P D &.$.L e.` k x x x x b 2.i.u.i.t.i.t.t.t.u.5.N l x x x k } 2.x x x x t u x x z % w !.~.",
"~.).A.< d k z z 4._ k x x x z v 2.i.u.u.i.t.i.t.t.i.t.b k x x x k [ 3.x x x x x z x c n F 7 Q.~.",
"~.~._.T.x.Y j s 4.` k x x x x b 2.i.u.u.i.i.i.u.u.i.u.M l x x x k { 3.x x x l z x x x m # q !.).",
").~.).)._.(.P.5 q.| k x x x k v 2.i.u.i.t.t.t.u.t.u.5.v k x x x l ..X.k x x i o + x l x = e ).~.",
"~.~.).~.!.).~.0 ,.3.c l x l k J 4.p.t.u.t.i.u.t.u.p.u.J k k x x b 4.` k l m t   . x z h , H._.!.",
").~.~.).).!._.c.T p.Z k k N [ [ Z { u.p.t.t.t.p.p...Z [ { N k k / p.N k v x l O r m y - N.~.~.~.",
").).).).).~.).P.6 q.2.b ( } Z x k x Z X.p.u.p.2.J x k l Z  .( N 2.q.I A k k k x a # 4 H._.~.~.).",
").).).~.!.).~.'.h.Y u.3.K v k x x x k x K 4.` v k x x x k x K 5.t.d.^.E.k.#.o.+.c.A.~.'.~.~.~.~.",
").).~.~.).~.~.'.R.q ~ p.K k l x x x x l z { b k x x x x x k ` 8.^ Z._.)._.(.)._._._.!.!.~.).~.~.",
").!.~.).~.)._.!.S.Q l [ a.{ x k x x x x v { M l x x x k v  .a.,.N._.!.)./.).~.~.~.~.~.~.~.~.).).",
").).).).).T.k.A k z x l _ i.2.Z v k k k x { b k k k v K 5.p.K H F.~.(.).~.~.~.~.~.~.).~.).).).).",
").).!.'.P.: k k x l l z c U w.p.4.] Z N N { B N J [ 6.p.1.B k z l D *.W._.~.~.~.~.).).).).).).).",
").).~.Q.7 g m v v x k A K.C.0 W -.y.i.u.5.7.7.8.i.r.-.U l k v x x k k A K.(.~.~.).).).).).).).).",
").).).W.1 - s z k i ! E._.).~.Z.h.+.$.^ :.>.>.<.d.g.V.P.P l z x x x l z h J._.~.~.).).).).).).).",
").).~.).A.4 $ ; Y D.)._.).).)._.).Q.U.L.Z.Z.L.P.T./.'.'.R.O.p z x x l z y x.'.~.~.).).).).).).).",
").).~.~.).T.I.I./._.).).).!.).!.~.)._.'._._.'.).).!.!.!.).).h.g a c c s = m.'.~.~.).).).).).).).",
").~.).).~.)._._./.!.!.).!.).!.).).!.).!.).!.!.).~.~.).).~.).).P.q 2 2 < e Q.~.~.).).).).).).).).",
").).~.)./.~.~.~.).).).!.).).).).).).).).).).).!.).~.~.~.).~.)._.).T.Q.Q.~._.~.~.~.).).).).).).).",
").).).).).).).).).).).).).).).).!.).).).).).).).).).).).!.).!.!.).).).(.~.~.).~.~.).).).).).).~.",
").).).).).).).).).).).).).).).).).).).).).).).).).).).).).).).).~.~.~.!.).).~.!.).).).).).).).).",
").).).).).).).).).).).).).).).).).).).).).).).).).).).).).).).).).).).).).).).).).).).).).).).).",
"!.).).).).).).).).).).).).).).).).).).).).).).).).).).).).).).).).).).).).).).).).).).).).).).).",
").).).).).).).).).).).).).).).).).).).).).).).).).).).).).).).).).).).).).).).).).).).).).).).).",
").).).).).).).).).).).)./.).).).).).).).).).).).).).).).).).).).).).).).).).).).).).).).).).).).",
").).).).).).).).!.).).).).).).).).).).).).).).).).).!.).).).).).).).).).).).).).).).).).).).).).",
").).).).).).).).).).).).).).).).).).).).).).).).).).).).).).).).).).).).).).).~.).).).).).).).)."
};
