/* XPM */
static char *result[] = {
/* columns rows colors chars-per-pixel */
"48 48 181 2 ",
"   c black",
".  c #032D00",
"X  c #053A01",
"o  c #045600",
"O  c #076500",
"+  c #067400",
"@  c #2F7B1C",
"#  c #317D1D",
"$  c #387A23",
"%  c #5B5C3D",
"&  c #466D2E",
"*  c #496B2F",
"=  c #43752A",
"-  c #496430",
";  c #58663B",
":  c #4C7731",
">  c #5B7B3B",
",  c #68783F",
"<  c #685A46",
"1  c #7A5E53",
"2  c #686146",
"3  c #646942",
"4  c #736E4D",
"5  c #667A44",
"6  c #6D7448",
"7  c #7A6253",
"8  c #7C7656",
"9  c #797C53",
"0  c #8B6E5E",
"q  c #8F7861",
"w  c #927563",
"e  c #927A63",
"r  c #068400",
"t  c #088200",
"y  c #1B8E0E",
"u  c #0A9401",
"i  c #0D9D02",
"p  c #169708",
"a  c #1B9C0C",
"s  c #1F8C10",
"d  c #2A8A18",
"f  c #30821C",
"g  c #259714",
"h  c #35991C",
"j  c #03A500",
"k  c #0BA601",
"l  c #04AB00",
"z  c #0BA900",
"x  c #10A504",
"c  c #13AB01",
"v  c #1BAE02",
"b  c #1FA00C",
"n  c #08B100",
"m  c #1FB003",
"M  c #21AF03",
"N  c #20A30F",
"B  c #24B104",
"V  c #2BB405",
"C  c #31B607",
"Z  c #31BA05",
"A  c #3CBA09",
"S  c #27A614",
"D  c #36A619",
"F  c #398823",
"G  c #3A9824",
"H  c #39B020",
"J  c #44BD0B",
"K  c #4BBF0D",
"L  c #47862C",
"P  c #5B873B",
"I  c #5E893D",
"U  c #579A37",
"Y  c #639B2B",
"T  c #688C3A",
"R  c #748F37",
"E  c #689738",
"W  c #7A9639",
"Q  c #48A72C",
"!  c #50A032",
"~  c #7BAB2C",
"^  c #7CA230",
"/  c #4DC00C",
"(  c #54C30E",
")  c #5DC90F",
"_  c #5CC511",
"`  c #5EC910",
"'  c #64C911",
"]  c #6BCC13",
"[  c #72CE14",
"{  c #78D216",
"}  c #7AD316",
"|  c #648D43",
" . c #6E8249",
".. c #77874C",
"X. c #669A41",
"o. c #749B4D",
"O. c #7B8154",
"+. c #68A445",
"@. c #6BAA45",
"#. c #78AE4E",
"$. c #7CB051",
"%. c #809F36",
"&. c #80BE22",
"*. c #8FBA2B",
"=. c #91BB2C",
"-. c #83A533",
";. c #86A934",
":. c #80C71D",
">. c #83D617",
",. c #85D51A",
"<. c #8AD71B",
"1. c #8CDB1A",
"2. c #93DB1C",
"3. c #99DD1F",
"4. c #96E21B",
"5. c #9CE11E",
"6. c #A6E61F",
"7. c #8EC125",
"8. c #96C725",
"9. c #96CB24",
"0. c #99CE25",
"q. c #94C429",
"w. c #99C62B",
"e. c #9BD323",
"r. c #9EDE21",
"t. c #A2D726",
"y. c #A1DF21",
"u. c #A3E122",
"i. c #AAE323",
"p. c #B0E425",
"a. c #848E4E",
"s. c #839446",
"d. c #83825B",
"f. c #898B5A",
"g. c #899557",
"h. c #89A55A",
"j. c #90AC5F",
"k. c #85B057",
"l. c #8C8861",
"z. c #978666",
"x. c #988567",
"c. c #918963",
"v. c #9E846B",
"b. c #949162",
"n. c #999169",
"m. c #A2836E",
"M. c #A38A6E",
"N. c #A1936B",
"B. c #A78D70",
"V. c #A59571",
"C. c #AD9676",
"Z. c #A99A75",
"A. c #AE9C79",
"S. c #B09977",
"D. c #B49D7B",
"F. c #B8997C",
"G. c #9FA26B",
"H. c #9DAE68",
"J. c #A7B26F",
"K. c #A7AF70",
"L. c #B4A17D",
"P. c #BBA17E",
"I. c #BAAE7E",
"U. c #BEA483",
"Y. c #BFB681",
"T. c #C3A484",
"R. c #C3AB83",
"E. c #C8AB87",
"W. c #C6AB8A",
"Q. c #CCAD8B",
"!. c #C4B584",
"~. c #C8BA86",
"^. c #CCB38B",
"/. c #D2B68E",
"(. c #D4B88F",
"). c #D5B491",
"_. c #DAB693",
"`. c #D5B990",
"'. c #DABC93",
"]. c #E0BB97",
"[. c #DBC094",
/* pixels */
"`.`.`.`.`.`.`.`.`.`.`.`.`.`.`.`.`.`./.`.`.(.(.`.`.`.(.(.(.(.(.(.`.`.`.`.`.`.`.`.`.`.`.`.`.`.`.`.",
"`.`.`.`.`.`.`.`.`.`.`.`.`.`.`.`./.`.`.`.`.'.(.^.^.'.'.(.(.'.(.(.`.`.`.`.`.`.`.`.`.`.`.`.`.`.`.`.",
"`.`.`.`.`.`.`.`.`.`.`.`.`.`.`.`.`.`./.`.`.C.0 1 7 e P.'.`.(.(.(.`.`.`.`.`.`.`.`.`.`.`.`.`.`.`.`.",
"`.`.`.`.`.`.`.`.`.`.`.`.`.`.`././.`.`./.w % = F $ & < B.'.(.(.(.`.`.`.`.`.`.`.`.`.`.`.`.`.`.`.`.",
"`.`.`.`.`.`.(.`.`.`.`.`.`.`.`.`.`./.`.v.* a l l l z g ; D.'.(.`.(.`.`.`.`.`.`.`.`.`.`.`.`.`.`.`.",
"`.`.`.`.`.`.`.`.`.`.`.`.`.`.`.`.`.`.W.; x l k z z k l y 4 ^.`.(.`.`.`.`.`.`.`.`.`.`.`.`.`.`.`.`.",
"`.`.`.`.`.`.`.`.`.`.`.`.`.`.`./.`.`.x.s n k z z z z z n $ S.'.(.(.`.`.`.`.`.`.`.`.`.`.`.`.`.`.`.",
"`.`.`.`.`.`.`.(.`./.`.`.`./.`./.`.`. .k O . u z z + . r p c.'.(.(.(.(.`.(.(.`.`.(.`.`.`.`.(.`.`.",
"`.`.`.`.`.`.(.(.`.(.(.(.`.`./.`.`.).L l X   t n z o   O l  ._.`.`.(.`.`././.`.`.(.(.`.`.`.`.`.`.",
"`.`.`.`.`.(.(.`.(.'.'.'.`.`.`.`.`.).G l u r k z z k t k l T _.`.`.`.(.`.'.'.`.`.`.(.`.`.`.`.`.`.",
"`.`.`.`.`.(.(.(.'.T.v.C.`.`.(.`.`.).G l z n z z z z n c j X._.`.`.`._.W.x.M.^.`.(.`.`.`.`.`.`.`.",
"`.`.`.`.`.`.(.'.R.2 $ y E (.`.`.`._.U j c z z z k z k z i h.'.`.`.'.K.g y - q `.(.(.`.`.`.`.`.`.",
"`.`.`.`.`.(.(.[.m.& z z j #.'.`.`.'.H.j j j z z z l j j N Y.).`.).!.S l z a < Q.`.`.`.`.(.`.`.`.",
"`.`.`.`.`.(.(.[.m.# n x l S Y.'.`._.L.h J ] ,.<.<.} ` V U W.`./.'.$.l k z k 3 E.`.`.`.`.`.`.`.`.",
"(.`.`.`.`.(.(.'.m.# n z z j k.[.^.c.;.e.r.,.] ' ] { 2.u.8...A.`.(.H j z z x 3 Q.`.(.`.`.`.`.`.`.",
"`.`.`.`.`.`.(.`.F.= z z z j Q W.a.7.5.] V z j j j k m / 1.r.^ Z.J.z z z z p 8 `.`.(.`.`.`.`.`.`.",
"`.`.`.`.`.`.(.(._.9 i z z z x E e.i._ j k z z z z z k j v 2.6.;.G j z z z f D.'.`.`.`.`.`.`.`.`.",
"`.`.`.`.`.(.(.(.'.T.L l z k c <.1.B [ v j z z z z z z l ( / _ p.( j z z p f._./.`.(.`.`.`.`.`.`.",
"`.`.`.`.`.`.(.`.(.'.S.d l k ] y.M j J ' j z z k z z j B { z j ] i.V j i  .`.`.`.`.(.`.`.`.`.`.`.",
"`.`.`.`.`.`.(.(.(.(.'.N.y Z u.J j z j [ C j z l j k j ' A j z c 2.,.j P Q.'.`.`.(.`.`.`.`.`.`.`.",
"`.`.`.`.`.`.`.`.`.(.(.'.f.:.,.l z z j V ] v v v v c J ' z z z j J 6.Y U.'./.`.`.(.`.`.`.`.`.`.`.",
"`.`.`.`.`.`.`.`.(.(.`.^.s.t./ j z z z j >.u.3.r.r.3.y.A j z k l c 2.=.V.'./.(./.`.`.`.`.`.`.`.`.",
"`.(.`.`.`.`.`.`.`.`.'.U.-.2.v j z z j A y.y.y.u.y.y.i.} c z z z j ' e.a.`.`.`.`.`.`.`.`.`.`.`.`.",
"`.`.`.`.`.`.`.`.`.`.'.n.=.{ z z z k c ,.i.r.y.y.y.y.y.u.J j z z j J u.o.W.'./.`.`.`.`.`.`.`.`.`.",
"`.`.`.`.`.`.`.`.(.(.'.b.9.' j j l j / i.r.r.r.u.u.u.y.u.<.c j z j v y.-.U._.`.`.`.`.`.`.`.(.`.`.",
"`.`.`.`.`.`.`.`.(.(.'.f.0.) v m v B 2.u.r.u.y.y.y.y.y.5.i._ v v v V 4.-.U.'./.`.`.`.`.`.`.`.`.`.",
"`.`.`.`.`.`.`.`.(.`.).g.9.>.' ] ' } u.r.u.r.y.u.u.y.u.y.u.2.' ] ] ] 5.;.A.'.`.`.`.`.`.`.`.`.`.`.",
"`.`.`.`.`.`.`.`.(.).(.f.0.( j c k v 1.u.r.u.y.y.r.r.r.r.u./ z c k M 4.-.A.'.`.`.`.`.`.`.`.`.`.`.",
"`.`.`.`.`.`.`.`.(.(.'.f.8.` j z k j / u.r.y.y.y.y.u.y.u.,.z k z j M 5.%.L.'.(.`.`.`.`.`.`.`.`.`.",
"`.`.`.`.`.`.`.`.(.(.'.n.*.[ k z k z l { i.5.y.y.r.r.y.y.A j z z j A y.W U.'.(.`.`.`.`.`.`.`.`.`.",
"`.`.`.`.`.`.(.`.(.(.'.V.-.2.v l z z j C 3.u.u.u.u.u.i.[ z k z z j _ t...^.`.(.`.`.`.`.`.`.`.`.`.",
"`.`.`.`.`.`.`.`.`.(.'.I...y.A j z z z k { e.,.<.<.,.2.A j z z z c 1.=.f.'.`.(.`.`.`.`.`.`.`.`.`.",
"`.`.`.`.`.`.`.`.`.`.`.`.d.q.{ j k z j V ] v v v v c A ' k k z j A i.R A.'.(.`.`.`.`.`.`.`.`.`.`.",
"`.`.`.`.`.`.`.`.(.`.`.'.C.R u.A j k k [ C j z k j l j ' J j z z 1.w.9 (.`.(.(.`.`.`.`.`.`.`.`.`.",
"`.`.`.`.`.`.`.`.`.(.(.`.(.O.&.2.v j J ' j z z z z z j B [ c j ' 6.Y V.'.(.(.(.`.`.`.`.`.`.`.`.`.",
"`.`.`.`.`.`.`.`.(.(.(.^.].+.c 2.,.v [ v j z z z z z z j K K K i.( p J.'.(.`.(.`.`.`.`.`.`.`.`.`.",
"`.`.`.`.`.`.`.`.`.`.`._.j.k l B 2.5.( j k z z z z z z j v <.6.' l j S Y._.(.`.(.`.`.`.`.`.`.`.`.",
"`.(.`.`.`.`.`.`.`.`._.Y.g j z j D w.3.) v j j j j k z A } y.~ k z z j ! `.(.(.(.`.`.`.`.`.`.`.`.",
"`.`.`.`.`.`.`.^.(.(.'.X.j z z z | 6 -.t.4.{ ) ( ( ] 1.u.w.T 0 Q j z z i G.'.`.`.`.`.`.`.`.(.`.`.",
"`.`.`.`.`.`.`.`.(.'.T.d z z j S ~.L.9 , W =.9.2.2.w.;.R 6 l./.H.j z z j I _.`.`.`.`.`.`.`.`.`.`.",
"`.`.`.`.`.`.`.(.(.'.M.d l z j @.'.'.(.Z.d.8 L l b 5 9 c.U.'.`./.S j z l : T.`.(.`.`.`.`.`.`.`.`.",
"`.`.`.`.`.`.`.(.(.'.v.& z l a I.'.(.(.'.(.`.o.j h T.(.'.'.`.(.].h.j n p % U.'.(.`.`.`.`.`.`.`.`.",
"`.`.`.`.`.`.`.(.^.'.C.< : @ f.'.(.(.(.(.(.].@.j P ).(.(.(.(./.`./.> f ; 7 ^.`.`.`.`.`.`.`.`.(.`.",
"`.`.`.`.`.`.`.`.`.`.'.z.< w ^.`.(.`.(.(.`.!.H d x.'.(.(.(.(.`.(.'.T.7 7 C.'.(.`.`.`.`.`.`.`.`.`.",
"`.`.`.`.`.`.`.(.`.(.`.`.E.`.`.`.`.(.(.(.'.~.5 < W.`.(.`.`.(.(.`.(.`.^.Q.`.`.(.`.`.`.`.`.`.`.`.`.",
"`.`.`.`.`.`.`.`.(.`.`.(.'.`.(.`.(.(.(.(.'.P.7 S.'.`.`.`.`.`.(.(.`.`.(.`.(.(.`.(.`.`.`.`.`.`.`.`.",
"`.`.`.`.`.`.`.`.(.(.`.(.(.(.`.(.(.(.(.(.(.(.(.`.(.`.(.(.`.`.`./.(.`.(.(.(.`.(.`.`.`.`.`.`.(.`.`.",
"`.`.`.`.`.`.`.`.`.`.`.`.`.`.`.`.(.'.(.(.(.(.`.(.(.`.(.`.`.`.`.`.`.`.`.`.`.`.`.`.`.`.`.`.`.).`.`."
};
