/* XPM */
static char *result[] = {
/* columns rows colors chars-per-pixel */
"48 48 181 2 ",
"   c black",
".  c #032C00",
"X  c #043501",
"o  c #055600",
"O  c #076500",
"+  c #077500",
"@  c #317D1E",
"#  c #397623",
"$  c #3A7E24",
"%  c #5B5D3D",
"&  c #456C2C",
"*  c #486C2F",
"=  c #45772C",
"-  c #4A6530",
";  c #58663B",
":  c #4D7332",
">  c #5A7C3B",
",  c #685A47",
"<  c #725E4D",
"1  c #7A5E53",
"2  c #686146",
"3  c #636942",
"4  c #74674F",
"5  c #677A45",
"6  c #6A7348",
"7  c #707449",
"8  c #7C6354",
"9  c #797755",
"0  c #797C53",
"q  c #8B6F5E",
"w  c #807756",
"e  c #927563",
"r  c #917A62",
"t  c #078500",
"y  c #098400",
"u  c #1D8E0F",
"i  c #0A9501",
"p  c #0D9D02",
"a  c #149907",
"s  c #1C910E",
"d  c #1C9C0D",
"f  c #2B8B18",
"g  c #32831E",
"h  c #259814",
"j  c #369A1D",
"k  c #03A600",
"l  c #0BA601",
"z  c #04AA00",
"x  c #0BA900",
"c  c #10A505",
"v  c #13AB01",
"b  c #1BAE02",
"n  c #1EA00D",
"m  c #05B000",
"M  c #09B000",
"N  c #1FB003",
"B  c #23B104",
"V  c #2BB405",
"C  c #31B707",
"Z  c #33BB06",
"A  c #3CBA09",
"S  c #25A313",
"D  c #28A815",
"F  c #36A61A",
"G  c #398123",
"H  c #3C9424",
"J  c #389A23",
"K  c #38B020",
"L  c #43BD0B",
"P  c #49BE0D",
"I  c #47872D",
"U  c #5C873C",
"Y  c #589B38",
"T  c #649B2D",
"R  c #688D3B",
"E  c #689838",
"W  c #7C9B35",
"Q  c #769238",
"!  c #49A82C",
"~  c #7CAA2D",
"^  c #7EA431",
"/  c #40C008",
"(  c #4DC10D",
")  c #53C30E",
"_  c #59C70F",
"`  c #56C410",
"'  c #5DC611",
"]  c #5ECA10",
"[  c #64C912",
"{  c #6CCC13",
"}  c #72CE15",
"|  c #75D315",
" . c #7AD316",
".. c #7DD218",
"X. c #6A8647",
"o. c #78884D",
"O. c #659B41",
"+. c #799847",
"@. c #7B8154",
"#. c #6AA844",
"$. c #79AF4E",
"%. c #79B04F",
"&. c #8EBA2B",
"*. c #91BA2E",
"=. c #83A435",
"-. c #84A933",
";. c #89AA36",
":. c #82C91E",
">. c #84D51A",
",. c #88D71B",
"<. c #8DDA1B",
"1. c #94DC1D",
"2. c #98DC1F",
"3. c #9CE21E",
"4. c #A1E31F",
"5. c #88C225",
"6. c #97CB25",
"7. c #99CF25",
"8. c #95C42B",
"9. c #9AC72D",
"0. c #97D124",
"q. c #9EDE21",
"w. c #A2D626",
"e. c #A1DE22",
"r. c #A3E122",
"t. c #A8E323",
"y. c #B0E625",
"u. c #838F4E",
"i. c #839645",
"p. c #86934C",
"a. c #82825A",
"s. c #848B59",
"d. c #888C58",
"f. c #8D8B5E",
"g. c #8C9157",
"h. c #86A259",
"j. c #8FAC5E",
"k. c #88B159",
"l. c #8E8963",
"z. c #978466",
"x. c #998667",
"c. c #948A63",
"v. c #9E846B",
"b. c #959262",
"n. c #999169",
"m. c #A3846E",
"M. c #A48A6E",
"N. c #A2966D",
"B. c #A69372",
"V. c #AC9576",
"C. c #A69873",
"Z. c #AA9B75",
"A. c #AF9D79",
"S. c #B09A77",
"D. c #B4967A",
"F. c #B39B7B",
"G. c #BB9B7E",
"H. c #9DAA68",
"J. c #A5AF6E",
"K. c #A7B26F",
"L. c #B4A07D",
"P. c #BBA07E",
"I. c #BAAE7D",
"U. c #BDA483",
"Y. c #BFAA81",
"T. c #BFB180",
"R. c #C2A484",
"E. c #C8AB87",
"W. c #C6AB89",
"Q. c #D0AC8D",
"!. c #C3B683",
"~. c #C9BA87",
"^. c #CDB38B",
"/. c #D3B68E",
"(. c #D4B88F",
"). c #D6B591",
"_. c #DAB593",
"`. c #D5B990",
"'. c #DABC93",
"]. c #E2BC98",
"[. c #DBC094",
/* pixels */
"`.`.`.`.`.`.`.`.`.`.`.`.`.`.`.`.`.`.`.`.`.(.`.`.(.`.(.(.(.(.`.`.`.`.`.`.`.`.`.`.`.`.`.`.`.`.`.`.",
"`.`.`.`.`.`.`.`.`.(.`.(.(.(.(.(.(.`.`.`.(.(.`.(.'.^./.(.(.(.`.(.(.`.(.(.(.`.`.(.`.`.`.`.`.`.`.`.",
"`.`.`.`.`.`.`.`.(.`.(.(.`.(.(.(.(.(.`.`.(.`.`.'.S.8 U.'.(.(.(.(.`.(.`.`.(.`.`.(.`.`.`.`.`.`.`.`.",
"`.`.`.`.`.`.`.`.(.(.(.'.^.^.'.(.`.(.(.`.`.`.`.E.2 5 ~.`.(.`.`.`.`.`.(.E.`.`.(.`.(.`.`.`.(.`.`.`.",
"`.`.`.`.`.`.`.`.(.(.'.S.< 1 R.'.(.`.(.`.(.(._.x.f K !.(.(.(.(.(.`.(.e , x.`.`.(.`.`.`.`.`.`.`.`.",
"`.`.`.`.(.`.`.`.(.`.E.4 ; g > Q.`.(.(.(.(.`._.U k #.].(.(.(.(.(._.s.@ : , V.'.(.(.`.`.`.`.`.`.`.",
"`.`.`.`.`.`.`.`.(.'.P.3 d m k h.].(.(.'.'.(.R.j k +.(.(.'.(.(.`.I.d m x * v.'.(.(.`.`.`.`.`.`.`.",
"`.`.`.`.`.`.`.`.(.'.R.: z l z D (.(.'.I.l.9 5 n x G 9 a.Z.(.'.].#.k v z f M.'.(.(.`.`.`.`.`.`.`.",
"`.`.`.`.`.`.`.`.(.(.).U z x x l H./.l.6 Q -.8.2.2.0.*.W 5 9 L.~.S z c z f R.`.`.`.`.`.`.(.`.`.`.",
"`.`.`.`.`.`.`.`.`.(._.H.p z l z ! w R 9.r.1.{ ` ` ]  .3.w.-.7 X.x x x l O.'.(.(.(.`.`.`.`.`.`.`.",
"`.`.(.`.`.`.`.`.(.`.`._.Y k x z p ~ e.>.A v l k k k k b _ 3.9.F z x z h I.`.`.`.(.`.`.`.`.`.`.`.",
"`.`.`.`.`.`.`.`.`.`.(._.!.S z l [ t.<.b k z x x x x x x k ) 4.<.B k l j.].(.`.`.`.`.`.`.`.`.`.`.",
"`.`.`.`.`.`.`.(.(.(.`.(.'.K.l ) y.P P ) k z x x x x z l N } B >.1.v #.'.(.(.(.(.`.`.`.`.`.`.`.`.",
"`.`.`.`.`.`.`.`.`.(.(.(._.V.T t.[ k v } B l x x x x x k ] L k b 1.5.0 (.`.`.(.`.`.`.(.`.`.`.`.`.",
"`.`.`.`.`.`.`.`.`.(.(.`.^.@.9.<.v l k L [ l z l z l k V { l l k L e.Q V.'.(.(.(.`.`.`.`.(.`.`.`.",
"`.`.`.`.`.`.`.`.`.`.(.'.A.Q t.A k x l l [ A v b b b b { C l x z z  .8.a.`.`.(.(.`.`.`.`.`.`.`.`.",
"`.`.`.`.`.`.`.`.`.`.`.'.l.&.<.v l x x l A 2.>.,.,.,.0.| z z x x k A e.X.Y.'.(.`.`.`.`.`.`.`.`.`.",
"`.`.`.`.`.`.`.`.`.`.`.^.o.w.] k z x l z } r.r.r.r.r.r.q.C l x x l b 1.=.Z.'.(.(.`.`.`.`.`.`.`.`.",
"`.`.`./.`.`.`.`.`.`.`.R.Q r.A k l z l Z r.r.q.q.e.q.q.t...z x x l l | *.n.[.(.(.`.`.(.`.`.`.`.(.",
"`.`.`.`.`.`.`.`.`.^.`.U.=.r.B l x l v >.r.q.r.q.r.r.q.q.t.L l x z k ] 6.f.`.(.(.`.`.`.`.`.`.`.`.",
"`.`.`.`.`.`.`.`.`.`.'.A.-.3.N x v z ( r.e.r.q.r.r.e.r.q.e.<.b l v l ) 0.d.`.(.(.`.`.`.`.`.`.`.`.",
"`.`.`.`.`.`.`.`.`.`.'.A.-.3.{ [ { { 2.r.e.q.r.q.q.q.q.r.e.r...[ { [ ..0.g.`.(.(.`.`.(.`.`.`.`.`.",
"`.`.`.`.`.`.`.`././.'.L.=.q.V b N v ' r.q.q.r.r.r.q.e.e.e.1.V b N b ] 0.g.`.(.(.`.`.`.`.`.`.`.`.",
"`.`.`.`.`.`.`.`.`.`.'.U.=.r.N k l l v <.r.r.q.e.r.q.e.q.t.) k z z k ] 6.b._.(.(.`.`.`.`.`.`.`.`.",
"`.`.`.`.`.`.`.`.(.(.`.E.i.e.A z x x l L r.e.e.e.q.e.e.t.>.x z x x l  .*.C.'.(.(.`.`.`.`.`.`.`.`.",
"`.`.`.`.`.`.`.`.(.(.`.).d.w.[ z x l z l ..r.r.r.r.r.e.4.A l l x z b 3.^ L.'.(.(.`.`.`.`.`.(.`.`.",
"`.`.`.`.`.`.`.`.(.(.(.'.N.*.1.v x x v k A 4.2.r.q.2.t...l z x x l A e.p.^.`.`.(.`.`.`.`.`.`.`.`.",
"`.`.`./.`.`.`./.(.(.(.'.U.T t.( k v z l [ L v N b b b } V l x x x >.:.s._.`.`.`./.`.`.`.`.`.`.`.",
"`.`.`.`.`.`.`.`.(.(.'.Q.U l >.2.v l k Z [ z l l l z k C } l x l L t.C s N.'.(.(.(.(.`.`.`.`.`.`.",
"`.`.`.`.`.`./.`.(.'.`.X.p z V t.{ l v } B l z x x l z k [ L k N e.{ l z f S.'.(.`.(.`.`.`.`.`.`.",
"`.`.`.`.`.`.`./.(.`.f.a z z z ) y.` ( ` k x x x x x z l B } B <.1.v l v z I R.'.`./.(.`.`.`.`.`.",
"`.`.`.`.`.`.`./.'.G.g z l x m J ;.r.2.B k l x x x x l l k ] t.7.E c z l z a 0 ).(.(.`.`.`.`.`.`.",
"`.`.`.`.`.`.(.(.`.9 a z v l x K.C.^ q.<.( b l k k l x V { 3.5.u.W.! z x x z = G.'.(.(.`.`.`.`.`.",
"`.`.`.`.`.`.`.`.^.3 c x l z F (.'.A.+.*.q.q...{ [ { >.q.w.=.b.^.].k.z x l m @ m.[.(.(.`.`.`.`.`.",
"`.`.`.`.`.`.(.[.E.3 c z l z %.'./.'.Q.Y V ' ..<.1.,.} / F F.`.(.`.!.D z v m @ m.[.(.(.(.`.`.`.`.",
"`.`.`.`.`./.(.`.E.2 h m z D !.'.`._.T.n z k z x c z z k l H.].(.(._.$.k z x & M.[.(.(.(.`.`.`.`.",
"`.`.`.`.`.`./.`.`.r - s h J.'.).`.'.g.k v x l x l z l v k Y _.`.(.`.(.O.s # 4 R.'.(.`.`.`.`.(.`.",
"`.`.`.`.`.`.`.`.`.^.M.z.R.'.`.`.`._.#.k x M x l x x M x z J /.`.(.(.`.`.V.v.P.'.(.`.(.`.`.`.`.`.",
"`.`.`.`.`.`./.`.`.`.'.[.`./.`.`.`.).R z l y l x x x y p z H ).`.(.`.(.(.[.[.`.(.(.(.(.`.`.`.`.`.",
"`.`.`.(.`.`.(.(.`.`././.`.`.`.`.`.'.o.z O   o M x y   X z I ).(.(.(.`.(.(.(.(.(.`.(.`.`.`.`.`.`.",
"`.`.`.`.`.`.`.^.`.`.`.(.`.`.^.`.(.'.c.a t . + x x i X o l X.).(.(.(.(.`.(.(.`.`.(.`.`.`.`.`.`.`.",
"`.`.`.`.`.`.`.`.`.`.`.`.`.`.`.`.(.[.D.$ M z x x x x x M u z._.`.(.`.`.`.(.`.(.(.`.(.`.`.`.`.`.`.",
"`.`.`.`.`.`.`.`.`.`.`.`.`.`.`.`.(.`.(.4 s z c x x x z c ; R.`.`.`.`.`.`.`.`.`.`.`.`.`.`.`.`.`.`.",
"`.`.`.`.`.`.`.`.`.`.`.`.`.`.`.`.`.(.`.F.; h x z M z d * v.[.(.(.(.`.`.`.`.`.`.`.`.`.`.`.`.`.`.`.",
"`.`.`.`.`.`.`.`.`.`.`.`.`.`.`.`.(.(.(.'.B., * G G = % r /.`.`.(.(.`.`.`.`.`.`.`.`.`.`.`.`.`.`.`.",
"`.`.`.`.`.`.`.`.`.`.`.`.`.`.`.`.(.`.(.(.'.P.e 8 1 q V.`.`.(.`.(.`.`.`.`.`.`.`.`.`.`.`.(.`.`.`.`.",
"`.`.`.`.`.`.`.`.`.`.`.`.`.`.`.`.`.(.(.(.(.'.`.^.^.(.'.`.(.`.`.`.`.`.`.`.`.`.`.`.`.`.`.`.`.`.`.`.",
"`.`.`.`.`.`.`.`.`.`.`.`.`.`.`.`.`.(.(.(.(.(.`.`.`.(.(.`.`.(.(.`.`.`.`.`.`.`.`.`.`.`.`.`.`.`.`.`."
};
